<svg width="1440" height="805" xmlns="http://www.w3.org/2000/svg"><g><path d="M-47,-128L-133,65L87,79Z" fill="#f9f9f9" stroke="#f9f9f9"/><path d="M-47,-128L87,79L84,-126Z" fill="#f6f6f6" stroke="#f6f6f6"/><path d="M-47,-128L84,-126L1241,-114Z" fill="#e1e1e1" stroke="#e1e1e1"/><path d="M84,-126L87,79L171,-36Z" fill="#f2f2f2" stroke="#f2f2f2"/><path d="M84,-126L171,-36L351,-100Z" fill="#ededed" stroke="#ededed"/><path d="M84,-126L351,-100L1241,-114Z" fill="#d7d7d7" stroke="#d7d7d7"/><path d="M171,-36L87,79L271,94Z" fill="#ececec" stroke="#ececec"/><path d="M171,-36L271,94L351,-100Z" fill="#eaeaea" stroke="#eaeaea"/><path d="M351,-100L271,94L393,74Z" fill="#e4e4e4" stroke="#e4e4e4"/><path d="M351,-100L393,74L497,21Z" fill="#e2e2e2" stroke="#e2e2e2"/><path d="M351,-100L497,21L561,-70Z" fill="#dfdfdf" stroke="#dfdfdf"/><path d="M351,-100L561,-70L982,-76Z" fill="#d0d0d0" stroke="#d0d0d0"/><path d="M351,-100L982,-76L1241,-114Z" fill="#bbbbbb" stroke="#bbbbbb"/><path d="M561,-70L497,21L646,-25Z" fill="#d6d6d6" stroke="#d6d6d6"/><path d="M561,-70L646,-25L862,-51Z" fill="#cbcbcb" stroke="#cbcbcb"/><path d="M561,-70L862,-51L982,-76Z" fill="#c0c0c0" stroke="#c0c0c0"/><path d="M646,-25L497,21L625,131Z" fill="#d2d2d2" stroke="#d2d2d2"/><path d="M646,-25L625,131L789,169Z" fill="#c6c6c6" stroke="#c6c6c6"/><path d="M646,-25L789,169L848,24Z" fill="#c1c1c1" stroke="#c1c1c1"/><path d="M646,-25L848,24L862,-51Z" fill="#c2c2c2" stroke="#c2c2c2"/><path d="M862,-51L848,24L982,-76Z" fill="#b7b7b7" stroke="#b7b7b7"/><path d="M982,-76L848,24L1024,108Z" fill="#b1b1b1" stroke="#b1b1b1"/><path d="M982,-76L1024,108L1148,47Z" fill="#a7a7a7" stroke="#a7a7a7"/><path d="M982,-76L1148,47L1121,-85Z" fill="#a6a6a6" stroke="#a6a6a6"/><path d="M982,-76L1121,-85L1241,-114Z" fill="#a3a3a3" stroke="#a3a3a3"/><path d="M1121,-85L1148,47L1243,44Z" fill="#9d9d9d" stroke="#9d9d9d"/><path d="M1121,-85L1243,44L1241,-114Z" fill="#9b9b9b" stroke="#9b9b9b"/><path d="M1241,-114L1243,44L1391,-111Z" fill="#929292" stroke="#929292"/><path d="M1391,-111L1243,44L1457,87Z" fill="#8b8b8b" stroke="#8b8b8b"/><path d="M1391,-111L1457,87L1531,17Z" fill="#828282" stroke="#828282"/><path d="M1391,-111L1531,17L1568,-49Z" fill="#808080" stroke="#808080"/><path d="M1568,-49L1531,17L1609,189Z" fill="#7d7d7d" stroke="#7d7d7d"/><path d="M-133,65L-129,582L-91,383Z" fill="#e0e0e0" stroke="#e0e0e0"/><path d="M-133,65L-91,383L-43,209Z" fill="#f0f0f0" stroke="#f0f0f0"/><path d="M-133,65L-43,209L87,79Z" fill="#f3f3f3" stroke="#f3f3f3"/><path d="M87,79L-43,209L101,206Z" fill="#ececec" stroke="#ececec"/><path d="M87,79L101,206L271,94Z" fill="#e9e9e9" stroke="#e9e9e9"/><path d="M271,94L101,206L215,240Z" fill="#e3e3e3" stroke="#e3e3e3"/><path d="M271,94L215,240L352,197Z" fill="#dfdfdf" stroke="#dfdfdf"/><path d="M271,94L352,197L393,74Z" fill="#dfdfdf" stroke="#dfdfdf"/><path d="M393,74L352,197L528,190Z" fill="#d9d9d9" stroke="#d9d9d9"/><path d="M393,74L528,190L497,21Z" fill="#d9d9d9" stroke="#d9d9d9"/><path d="M497,21L528,190L625,131Z" fill="#d1d1d1" stroke="#d1d1d1"/><path d="M625,131L528,190L652,231Z" fill="#c8c8c8" stroke="#c8c8c8"/><path d="M625,131L652,231L789,169Z" fill="#c1c1c1" stroke="#c1c1c1"/><path d="M848,24L789,169L932,183Z" fill="#b4b4b4" stroke="#b4b4b4"/><path d="M848,24L932,183L1024,108Z" fill="#aeaeae" stroke="#aeaeae"/><path d="M1024,108L932,183L1146,325Z" fill="#9f9f9f" stroke="#9f9f9f"/><path d="M1024,108L1146,325L1181,258Z" fill="#969696" stroke="#969696"/><path d="M1024,108L1181,258L1148,47Z" fill="#9b9b9b" stroke="#9b9b9b"/><path d="M1148,47L1181,258L1252,241Z" fill="#919191" stroke="#919191"/><path d="M1148,47L1252,241L1243,44Z" fill="#939393" stroke="#939393"/><path d="M1243,44L1252,241L1408,237Z" fill="#888888" stroke="#888888"/><path d="M1243,44L1408,237L1457,87Z" fill="#848484" stroke="#848484"/><path d="M1457,87L1408,237L1609,189Z" fill="#767676" stroke="#767676"/><path d="M1457,87L1609,189L1531,17Z" fill="#7a7a7a" stroke="#7a7a7a"/><path d="M-43,209L-91,383L37,348Z" fill="#e1e1e1" stroke="#e1e1e1"/><path d="M-43,209L37,348L101,206Z" fill="#e8e8e8" stroke="#e8e8e8"/><path d="M101,206L37,348L172,386Z" fill="#dadada" stroke="#dadada"/><path d="M101,206L172,386L215,240Z" fill="#dedede" stroke="#dedede"/><path d="M215,240L172,386L421,384Z" fill="#cdcdcd" stroke="#cdcdcd"/><path d="M215,240L421,384L352,197Z" fill="#d6d6d6" stroke="#d6d6d6"/><path d="M352,197L421,384L528,190Z" fill="#d2d2d2" stroke="#d2d2d2"/><path d="M528,190L421,384L660,337Z" fill="#c3c3c3" stroke="#c3c3c3"/><path d="M528,190L660,337L652,231Z" fill="#c4c4c4" stroke="#c4c4c4"/><path d="M652,231L660,337L789,169Z" fill="#bcbcbc" stroke="#bcbcbc"/><path d="M789,169L660,337L832,378Z" fill="#afafaf" stroke="#afafaf"/><path d="M789,169L832,378L932,183Z" fill="#aeaeae" stroke="#aeaeae"/><path d="M932,183L832,378L939,421Z" fill="#9c9c9c" stroke="#9c9c9c"/><path d="M932,183L939,421L1146,325Z" fill="#969696" stroke="#969696"/><path d="M1181,258L1146,325L1252,241Z" fill="#8b8b8b" stroke="#8b8b8b"/><path d="M1252,241L1146,325L1326,366Z" fill="#7f7f7f" stroke="#7f7f7f"/><path d="M1252,241L1326,366L1408,237Z" fill="#7d7d7d" stroke="#7d7d7d"/><path d="M1408,237L1326,366L1379,395Z" fill="#6f6f6f" stroke="#6f6f6f"/><path d="M1408,237L1379,395L1563,333Z" fill="#6a6a6a" stroke="#6a6a6a"/><path d="M1408,237L1563,333L1609,189Z" fill="#727272" stroke="#727272"/><path d="M1609,189L1563,333L1579,551Z" fill="#5f5f5f" stroke="#5f5f5f"/><path d="M1609,189L1579,551L1635,826Z" fill="#3e3e3e" stroke="#3e3e3e"/><path d="M-91,383L-129,582L90,531Z" fill="#bdbdbd" stroke="#bdbdbd"/><path d="M-91,383L90,531L37,348Z" fill="#cacaca" stroke="#cacaca"/><path d="M37,348L90,531L172,386Z" fill="#c5c5c5" stroke="#c5c5c5"/><path d="M172,386L90,531L240,485Z" fill="#b8b8b8" stroke="#b8b8b8"/><path d="M172,386L240,485L421,384Z" fill="#bcbcbc" stroke="#bcbcbc"/><path d="M421,384L240,485L361,513Z" fill="#b0b0b0" stroke="#b0b0b0"/><path d="M421,384L361,513L468,435Z" fill="#b0b0b0" stroke="#b0b0b0"/><path d="M421,384L468,435L660,337Z" fill="#b4b4b4" stroke="#b4b4b4"/><path d="M468,435L361,513L398,619Z" fill="#a1a1a1" stroke="#a1a1a1"/><path d="M468,435L398,619L565,514Z" fill="#9d9d9d" stroke="#9d9d9d"/><path d="M468,435L565,514L660,337Z" fill="#a7a7a7" stroke="#a7a7a7"/><path d="M660,337L565,514L700,482Z" fill="#9d9d9d" stroke="#9d9d9d"/><path d="M660,337L700,482L832,378Z" fill="#9e9e9e" stroke="#9e9e9e"/><path d="M832,378L700,482L846,472Z" fill="#8f8f8f" stroke="#8f8f8f"/><path d="M832,378L846,472L939,421Z" fill="#8b8b8b" stroke="#8b8b8b"/><path d="M939,421L846,472L1004,537Z" fill="#7c7c7c" stroke="#7c7c7c"/><path d="M939,421L1004,537L1073,521Z" fill="#717171" stroke="#717171"/><path d="M939,421L1073,521L1146,325Z" fill="#7b7b7b" stroke="#7b7b7b"/><path d="M1146,325L1073,521L1310,486Z" fill="#6b6b6b" stroke="#6b6b6b"/><path d="M1146,325L1310,486L1326,366Z" fill="#6e6e6e" stroke="#6e6e6e"/><path d="M1326,366L1310,486L1379,395Z" fill="#616161" stroke="#616161"/><path d="M1379,395L1310,486L1384,479Z" fill="#585858" stroke="#585858"/><path d="M1379,395L1384,479L1563,333Z" fill="#5b5b5b" stroke="#5b5b5b"/><path d="M1563,333L1384,479L1579,551Z" fill="#4c4c4c" stroke="#4c4c4c"/><path d="M-129,582L-108,928L-100,664Z" fill="#949494" stroke="#949494"/><path d="M-129,582L-100,664L90,531Z" fill="#ababab" stroke="#ababab"/><path d="M90,531L-100,664L111,695Z" fill="#9f9f9f" stroke="#9f9f9f"/><path d="M90,531L111,695L198,645Z" fill="#9b9b9b" stroke="#9b9b9b"/><path d="M90,531L198,645L240,485Z" fill="#a6a6a6" stroke="#a6a6a6"/><path d="M240,485L198,645L361,513Z" fill="#a3a3a3" stroke="#a3a3a3"/><path d="M361,513L198,645L398,619Z" fill="#979797" stroke="#979797"/><path d="M565,514L398,619L506,663Z" fill="#8c8c8c" stroke="#8c8c8c"/><path d="M565,514L506,663L714,730Z" fill="#7b7b7b" stroke="#7b7b7b"/><path d="M565,514L714,730L700,482Z" fill="#818181" stroke="#818181"/><path d="M700,482L714,730L882,653Z" fill="#6e6e6e" stroke="#6e6e6e"/><path d="M700,482L882,653L846,472Z" fill="#7b7b7b" stroke="#7b7b7b"/><path d="M846,472L882,653L1004,537Z" fill="#6e6e6e" stroke="#6e6e6e"/><path d="M1004,537L882,653L934,658Z" fill="#5f5f5f" stroke="#5f5f5f"/><path d="M1004,537L934,658L1112,663Z" fill="#575757" stroke="#575757"/><path d="M1004,537L1112,663L1073,521Z" fill="#5c5c5c" stroke="#5c5c5c"/><path d="M1073,521L1112,663L1241,648Z" fill="#4d4d4d" stroke="#4d4d4d"/><path d="M1073,521L1241,648L1310,486Z" fill="#535353" stroke="#535353"/><path d="M1310,486L1241,648L1402,636Z" fill="#414141" stroke="#414141"/><path d="M1310,486L1402,636L1384,479Z" fill="#474747" stroke="#474747"/><path d="M1384,479L1402,636L1579,551Z" fill="#3b3b3b" stroke="#3b3b3b"/><path d="M1579,551L1402,636L1583,652Z" fill="#2c2c2c" stroke="#2c2c2c"/><path d="M1579,551L1583,652L1635,826Z" fill="#1f1f1f" stroke="#1f1f1f"/><path d="M-100,664L-108,928L-54,883Z" fill="#7e7e7e" stroke="#7e7e7e"/><path d="M-100,664L-54,883L65,827Z" fill="#828282" stroke="#828282"/><path d="M-100,664L65,827L111,695Z" fill="#8b8b8b" stroke="#8b8b8b"/><path d="M111,695L65,827L263,778Z" fill="#7d7d7d" stroke="#7d7d7d"/><path d="M111,695L263,778L198,645Z" fill="#878787" stroke="#878787"/><path d="M198,645L263,778L398,619Z" fill="#888888" stroke="#888888"/><path d="M398,619L263,778L432,782Z" fill="#7a7a7a" stroke="#7a7a7a"/><path d="M398,619L432,782L506,663Z" fill="#7e7e7e" stroke="#7e7e7e"/><path d="M506,663L432,782L568,865Z" fill="#696969" stroke="#696969"/><path d="M506,663L568,865L672,839Z" fill="#5e5e5e" stroke="#5e5e5e"/><path d="M506,663L672,839L714,730Z" fill="#626262" stroke="#626262"/><path d="M714,730L672,839L873,884Z" fill="#484848" stroke="#484848"/><path d="M714,730L873,884L924,813Z" fill="#424242" stroke="#424242"/><path d="M714,730L924,813L882,653Z" fill="#515151" stroke="#515151"/><path d="M882,653L924,813L934,658Z" fill="#4f4f4f" stroke="#4f4f4f"/><path d="M934,658L924,813L1097,767Z" fill="#414141" stroke="#414141"/><path d="M934,658L1097,767L1112,663Z" fill="#454545" stroke="#454545"/><path d="M1112,663L1097,767L1241,648Z" fill="#3c3c3c" stroke="#3c3c3c"/><path d="M1241,648L1097,767L1319,769Z" fill="#2e2e2e" stroke="#2e2e2e"/><path d="M1241,648L1319,769L1402,636Z" fill="#2d2d2d" stroke="#2d2d2d"/><path d="M1402,636L1319,769L1399,819Z" fill="#1d1d1d" stroke="#1d1d1d"/><path d="M1402,636L1399,819L1583,652Z" fill="#1d1d1d" stroke="#1d1d1d"/><path d="M1583,652L1399,819L1635,826Z" fill="#0e0e0e" stroke="#0e0e0e"/><path d="M-54,883L-108,928L38,956Z" fill="#7a7a7a" stroke="#7a7a7a"/><path d="M-54,883L38,956L65,827Z" fill="#777777" stroke="#777777"/><path d="M65,827L38,956L238,942Z" fill="#727272" stroke="#727272"/><path d="M65,827L238,942L263,778Z" fill="#6e6e6e" stroke="#6e6e6e"/><path d="M263,778L238,942L333,982Z" fill="#696969" stroke="#696969"/><path d="M263,778L333,982L432,782Z" fill="#666666" stroke="#666666"/><path d="M432,782L333,982L487,975Z" fill="#626262" stroke="#626262"/><path d="M432,782L487,975L568,865Z" fill="#5d5d5d" stroke="#5d5d5d"/><path d="M568,865L487,975L711,1024Z" fill="#555555" stroke="#555555"/><path d="M568,865L711,1024L672,839Z" fill="#4f4f4f" stroke="#4f4f4f"/><path d="M672,839L711,1024L873,884Z" fill="#454545" stroke="#454545"/><path d="M873,884L711,1024L877,977Z" fill="#3f3f3f" stroke="#3f3f3f"/><path d="M873,884L877,977L1009,1009Z" fill="#363636" stroke="#363636"/><path d="M873,884L1009,1009L1077,931Z" fill="#2f2f2f" stroke="#2f2f2f"/><path d="M873,884L1077,931L924,813Z" fill="#323232" stroke="#323232"/><path d="M924,813L1077,931L1097,767Z" fill="#2b2b2b" stroke="#2b2b2b"/><path d="M1097,767L1077,931L1319,769Z" fill="#212121" stroke="#212121"/><path d="M1319,769L1077,931L1257,1013Z" fill="#1a1a1a" stroke="#1a1a1a"/><path d="M1319,769L1257,1013L1399,819Z" fill="#101010" stroke="#101010"/><path d="M1399,819L1257,1013L1429,956Z" fill="#0c0c0c" stroke="#0c0c0c"/><path d="M1399,819L1429,956L1635,826Z" fill="#000000" stroke="#000000"/><path d="M1635,826L1429,956L1528,1020Z" fill="#000000" stroke="#000000"/><path d="M38,956L711,1024L333,982Z" fill="#656565" stroke="#656565"/><path d="M38,956L333,982L238,942Z" fill="#6d6d6d" stroke="#6d6d6d"/><path d="M333,982L711,1024L487,975Z" fill="#5c5c5c" stroke="#5c5c5c"/><path d="M711,1024L1528,1020L1257,1013Z" fill="#1f1f1f" stroke="#1f1f1f"/><path d="M711,1024L1257,1013L1009,1009Z" fill="#2f2f2f" stroke="#2f2f2f"/><path d="M711,1024L1009,1009L877,977Z" fill="#3b3b3b" stroke="#3b3b3b"/><path d="M1009,1009L1257,1013L1077,931Z" fill="#232323" stroke="#232323"/><path d="M1257,1013L1528,1020L1429,956Z" fill="#080808" stroke="#080808"/></g></svg>